<svg width="1280" height="720" viewBox="0 0 1280 720" fill="none" xmlns="http://www.w3.org/2000/svg" role="img" aria-labelledby="title desc">
  <title id="title">Reddit Data Engineering Pipeline Architecture</title>
  <desc id="desc">A left-to-right architecture diagram showing Reddit API ingestion, Airflow orchestration, Python ETL transformation, local CSV output, Amazon S3 raw storage, and downstream analytics.</desc>
  <defs>
    <linearGradient id="bg" x1="0" y1="0" x2="1280" y2="720" gradientUnits="userSpaceOnUse">
      <stop stop-color="#F8FAFC"/>
      <stop offset="1" stop-color="#EEF6F2"/>
    </linearGradient>
    <filter id="shadow" x="-20%" y="-20%" width="140%" height="140%">
      <feDropShadow dx="0" dy="12" stdDeviation="14" flood-color="#0F172A" flood-opacity="0.12"/>
    </filter>
    <marker id="arrow" markerWidth="14" markerHeight="14" refX="10" refY="7" orient="auto" markerUnits="strokeWidth">
      <path d="M2 2L10 7L2 12" stroke="#334155" stroke-width="2" stroke-linecap="round" stroke-linejoin="round"/>
    </marker>
  </defs>

  <rect width="1280" height="720" fill="url(#bg)"/>
  <rect x="54" y="48" width="1172" height="624" rx="28" fill="#FFFFFF" stroke="#D9E2EC"/>

  <text x="94" y="108" fill="#0F172A" font-family="Segoe UI, Arial, sans-serif" font-size="34" font-weight="700">Reddit Data Engineering Pipeline</text>
  <text x="94" y="142" fill="#475569" font-family="Segoe UI, Arial, sans-serif" font-size="17">Batch ingestion workflow for Reddit post analytics using Airflow, Python, and Amazon S3</text>

  <g font-family="Segoe UI, Arial, sans-serif">
    <g filter="url(#shadow)">
      <rect x="94" y="238" width="170" height="150" rx="18" fill="#FFF7ED" stroke="#FDBA74" stroke-width="2"/>
      <circle cx="136" cy="286" r="22" fill="#EA580C"/>
      <text x="136" y="294" text-anchor="middle" fill="#FFFFFF" font-size="24" font-weight="700">R</text>
      <text x="124" y="337" fill="#7C2D12" font-size="22" font-weight="700">Reddit API</text>
      <text x="124" y="365" fill="#9A3412" font-size="14">Posts, scores, authors</text>
    </g>

    <g filter="url(#shadow)">
      <rect x="330" y="238" width="176" height="150" rx="18" fill="#EEF2FF" stroke="#A5B4FC" stroke-width="2"/>
      <circle cx="372" cy="286" r="22" fill="#4F46E5"/>
      <path d="M363 286H381M372 277V295" stroke="#FFFFFF" stroke-width="4" stroke-linecap="round"/>
      <text x="360" y="337" fill="#312E81" font-size="22" font-weight="700">Airflow DAG</text>
      <text x="360" y="365" fill="#4338CA" font-size="14">Daily orchestration</text>
    </g>

    <g filter="url(#shadow)">
      <rect x="574" y="238" width="176" height="150" rx="18" fill="#ECFDF5" stroke="#86EFAC" stroke-width="2"/>
      <circle cx="616" cy="286" r="22" fill="#059669"/>
      <path d="M606 286L614 294L628 276" stroke="#FFFFFF" stroke-width="4" stroke-linecap="round" stroke-linejoin="round"/>
      <text x="604" y="337" fill="#064E3B" font-size="22" font-weight="700">Python ETL</text>
      <text x="604" y="365" fill="#047857" font-size="14">Extract and transform</text>
    </g>

    <g filter="url(#shadow)">
      <rect x="818" y="238" width="176" height="150" rx="18" fill="#FDF2F8" stroke="#F9A8D4" stroke-width="2"/>
      <circle cx="860" cy="286" r="22" fill="#DB2777"/>
      <path d="M852 276H868M852 286H868M852 296H862" stroke="#FFFFFF" stroke-width="4" stroke-linecap="round"/>
      <text x="848" y="337" fill="#831843" font-size="22" font-weight="700">CSV Output</text>
      <text x="848" y="365" fill="#BE185D" font-size="14">Local landing zone</text>
    </g>

    <g filter="url(#shadow)">
      <rect x="1060" y="238" width="126" height="150" rx="18" fill="#EFF6FF" stroke="#93C5FD" stroke-width="2"/>
      <circle cx="1102" cy="286" r="22" fill="#2563EB"/>
      <path d="M1091 290C1096 278 1108 278 1113 290M1089 296H1115" stroke="#FFFFFF" stroke-width="4" stroke-linecap="round"/>
      <text x="1087" y="337" fill="#1E3A8A" font-size="22" font-weight="700">S3</text>
      <text x="1087" y="365" fill="#1D4ED8" font-size="14">Raw storage</text>
    </g>

    <path d="M274 313H318" stroke="#334155" stroke-width="3" stroke-linecap="round" marker-end="url(#arrow)"/>
    <path d="M516 313H562" stroke="#334155" stroke-width="3" stroke-linecap="round" marker-end="url(#arrow)"/>
    <path d="M760 313H806" stroke="#334155" stroke-width="3" stroke-linecap="round" marker-end="url(#arrow)"/>
    <path d="M1004 313H1048" stroke="#334155" stroke-width="3" stroke-linecap="round" marker-end="url(#arrow)"/>

    <rect x="160" y="468" width="960" height="92" rx="20" fill="#F8FAFC" stroke="#CBD5E1"/>
    <text x="198" y="506" fill="#0F172A" font-size="20" font-weight="700">Downstream analytics path</text>
    <text x="198" y="535" fill="#475569" font-size="15">S3 raw data can be cataloged with AWS Glue, queried with Athena, converted to Parquet, or loaded into Redshift.</text>

    <path d="M1123 397V438C1123 455 1109 469 1092 469H1034" stroke="#64748B" stroke-width="3" stroke-linecap="round" stroke-dasharray="8 8" marker-end="url(#arrow)"/>

    <g>
      <rect x="94" y="596" width="308" height="38" rx="19" fill="#F1F5F9" stroke="#CBD5E1"/>
      <circle cx="117" cy="615" r="7" fill="#059669"/>
      <text x="134" y="621" fill="#334155" font-size="14">Config-driven subreddit and post limit</text>
    </g>
    <g>
      <rect x="426" y="596" width="276" height="38" rx="19" fill="#F1F5F9" stroke="#CBD5E1"/>
      <circle cx="449" cy="615" r="7" fill="#DB2777"/>
      <text x="466" y="621" fill="#334155" font-size="14">Analytics-ready CSV schema</text>
    </g>
    <g>
      <rect x="726" y="596" width="302" height="38" rx="19" fill="#F1F5F9" stroke="#CBD5E1"/>
      <circle cx="749" cy="615" r="7" fill="#2563EB"/>
      <text x="766" y="621" fill="#334155" font-size="14">Cloud-ready raw data landing zone</text>
    </g>
  </g>
</svg>
